<mxfile host="app.diagrams.net" modified="2024-03-17T02:32:20.543Z" agent="Mozilla/5.0 (Windows NT 10.0; Win64; x64; rv:109.0) Gecko/20100101 Firefox/110.0" etag="2Au7vW8hisfXAUGvew6l" version="24.0.7" type="github">
  <diagram name="第 1 页" id="BZcq87guum1S3lE4gvxU">
    <mxGraphModel dx="1235" dy="633" grid="0" gridSize="10" guides="1" tooltips="1" connect="1" arrows="1" fold="1" page="1" pageScale="1" pageWidth="827" pageHeight="1169" math="0" shadow="0">
      <root>
        <mxCell id="0" />
        <mxCell id="1" parent="0" />
        <mxCell id="TrBIN7piPavdMXaeN3Ud-1" value="登录" style="ellipse;whiteSpace=wrap;html=1;" vertex="1" parent="1">
          <mxGeometry x="327" y="54" width="95" height="45" as="geometry" />
        </mxCell>
        <mxCell id="TrBIN7piPavdMXaeN3Ud-2" value="发布求助信息" style="rounded=1;whiteSpace=wrap;html=1;" vertex="1" parent="1">
          <mxGeometry x="322" y="143" width="97" height="29" as="geometry" />
        </mxCell>
        <mxCell id="TrBIN7piPavdMXaeN3Ud-3" value="志愿者是否看到求助信息" style="rhombus;whiteSpace=wrap;html=1;" vertex="1" parent="1">
          <mxGeometry x="334.5" y="291.5" width="80" height="80" as="geometry" />
        </mxCell>
        <mxCell id="TrBIN7piPavdMXaeN3Ud-4" value="前往求助地方" style="rounded=1;whiteSpace=wrap;html=1;" vertex="1" parent="1">
          <mxGeometry x="329" y="412.5" width="97" height="29" as="geometry" />
        </mxCell>
        <mxCell id="TrBIN7piPavdMXaeN3Ud-6" value="" style="endArrow=classic;html=1;rounded=0;entryX=0.5;entryY=0;entryDx=0;entryDy=0;" edge="1" parent="1">
          <mxGeometry width="50" height="50" relative="1" as="geometry">
            <mxPoint x="373" y="100" as="sourcePoint" />
            <mxPoint x="373.75" y="143" as="targetPoint" />
          </mxGeometry>
        </mxCell>
        <mxCell id="TrBIN7piPavdMXaeN3Ud-8" value="" style="endArrow=classic;html=1;rounded=0;entryX=0.5;entryY=0;entryDx=0;entryDy=0;" edge="1" parent="1">
          <mxGeometry width="50" height="50" relative="1" as="geometry">
            <mxPoint x="374.13" y="250.5" as="sourcePoint" />
            <mxPoint x="374.88" y="293.5" as="targetPoint" />
          </mxGeometry>
        </mxCell>
        <mxCell id="TrBIN7piPavdMXaeN3Ud-9" value="" style="endArrow=classic;html=1;rounded=0;entryX=0.5;entryY=0;entryDx=0;entryDy=0;" edge="1" parent="1">
          <mxGeometry width="50" height="50" relative="1" as="geometry">
            <mxPoint x="374.13" y="371.5" as="sourcePoint" />
            <mxPoint x="374.88" y="414.5" as="targetPoint" />
          </mxGeometry>
        </mxCell>
        <mxCell id="TrBIN7piPavdMXaeN3Ud-10" value="" style="endArrow=classic;html=1;rounded=0;entryX=1;entryY=0.5;entryDx=0;entryDy=0;" edge="1" parent="1">
          <mxGeometry width="50" height="50" relative="1" as="geometry">
            <mxPoint x="414.5" y="331.5" as="sourcePoint" />
            <mxPoint x="419" y="236" as="targetPoint" />
            <Array as="points">
              <mxPoint x="470" y="331.5" />
              <mxPoint x="468" y="236.5" />
            </Array>
          </mxGeometry>
        </mxCell>
        <mxCell id="TrBIN7piPavdMXaeN3Ud-11" value="y" style="text;html=1;align=center;verticalAlign=middle;resizable=0;points=[];autosize=1;strokeColor=none;fillColor=none;" vertex="1" parent="1">
          <mxGeometry x="369.5" y="370.5" width="24" height="26" as="geometry" />
        </mxCell>
        <mxCell id="TrBIN7piPavdMXaeN3Ud-12" value="n" style="text;html=1;align=center;verticalAlign=middle;resizable=0;points=[];autosize=1;strokeColor=none;fillColor=none;" vertex="1" parent="1">
          <mxGeometry x="434.5" y="305.5" width="24" height="26" as="geometry" />
        </mxCell>
        <mxCell id="TrBIN7piPavdMXaeN3Ud-17" value="求助类型" style="rounded=1;whiteSpace=wrap;html=1;" vertex="1" parent="1">
          <mxGeometry x="322" y="217" width="97" height="29" as="geometry" />
        </mxCell>
        <mxCell id="TrBIN7piPavdMXaeN3Ud-20" value="" style="endArrow=classic;html=1;rounded=0;" edge="1" parent="1">
          <mxGeometry width="50" height="50" relative="1" as="geometry">
            <mxPoint x="372" y="170" as="sourcePoint" />
            <mxPoint x="372" y="216" as="targetPoint" />
          </mxGeometry>
        </mxCell>
        <mxCell id="TrBIN7piPavdMXaeN3Ud-22" value="结束" style="ellipse;whiteSpace=wrap;html=1;" vertex="1" parent="1">
          <mxGeometry x="327" y="481" width="101" height="48" as="geometry" />
        </mxCell>
        <mxCell id="TrBIN7piPavdMXaeN3Ud-23" value="" style="endArrow=classic;html=1;rounded=0;" edge="1" parent="1">
          <mxGeometry width="50" height="50" relative="1" as="geometry">
            <mxPoint x="376" y="441.5" as="sourcePoint" />
            <mxPoint x="376" y="479" as="targetPoint" />
          </mxGeometry>
        </mxCell>
        <mxCell id="TrBIN7piPavdMXaeN3Ud-24" value="开始登录" style="ellipse;whiteSpace=wrap;html=1;" vertex="1" parent="1">
          <mxGeometry x="303" y="603" width="101" height="49" as="geometry" />
        </mxCell>
        <mxCell id="TrBIN7piPavdMXaeN3Ud-25" value="求助列表" style="rounded=1;whiteSpace=wrap;html=1;" vertex="1" parent="1">
          <mxGeometry x="301" y="686" width="113" height="42" as="geometry" />
        </mxCell>
        <mxCell id="TrBIN7piPavdMXaeN3Ud-26" value="" style="endArrow=classic;html=1;rounded=0;entryX=0.456;entryY=0.004;entryDx=0;entryDy=0;entryPerimeter=0;" edge="1" parent="1" target="TrBIN7piPavdMXaeN3Ud-25">
          <mxGeometry width="50" height="50" relative="1" as="geometry">
            <mxPoint x="352.5" y="652" as="sourcePoint" />
            <mxPoint x="353" y="681" as="targetPoint" />
          </mxGeometry>
        </mxCell>
        <mxCell id="TrBIN7piPavdMXaeN3Ud-27" value="" style="endArrow=classic;html=1;rounded=0;" edge="1" parent="1">
          <mxGeometry width="50" height="50" relative="1" as="geometry">
            <mxPoint x="356" y="728" as="sourcePoint" />
            <mxPoint x="356" y="769" as="targetPoint" />
          </mxGeometry>
        </mxCell>
        <mxCell id="TrBIN7piPavdMXaeN3Ud-28" value="提供帮助" style="rounded=1;whiteSpace=wrap;html=1;" vertex="1" parent="1">
          <mxGeometry x="306" y="769" width="113" height="42" as="geometry" />
        </mxCell>
        <mxCell id="TrBIN7piPavdMXaeN3Ud-29" value="是否解决问题" style="rhombus;whiteSpace=wrap;html=1;" vertex="1" parent="1">
          <mxGeometry x="326.75" y="842" width="71.5" height="71" as="geometry" />
        </mxCell>
        <mxCell id="TrBIN7piPavdMXaeN3Ud-30" value="" style="endArrow=classic;html=1;rounded=0;" edge="1" parent="1">
          <mxGeometry width="50" height="50" relative="1" as="geometry">
            <mxPoint x="361.66" y="811" as="sourcePoint" />
            <mxPoint x="362" y="844" as="targetPoint" />
          </mxGeometry>
        </mxCell>
        <mxCell id="TrBIN7piPavdMXaeN3Ud-31" value="" style="endArrow=classic;html=1;rounded=0;" edge="1" parent="1">
          <mxGeometry width="50" height="50" relative="1" as="geometry">
            <mxPoint x="362.16" y="913" as="sourcePoint" />
            <mxPoint x="362.5" y="946" as="targetPoint" />
          </mxGeometry>
        </mxCell>
        <mxCell id="TrBIN7piPavdMXaeN3Ud-32" value="问题已解决" style="rounded=1;whiteSpace=wrap;html=1;" vertex="1" parent="1">
          <mxGeometry x="309" y="946" width="113" height="42" as="geometry" />
        </mxCell>
        <mxCell id="TrBIN7piPavdMXaeN3Ud-33" value="y" style="text;html=1;align=center;verticalAlign=middle;resizable=0;points=[];autosize=1;strokeColor=none;fillColor=none;" vertex="1" parent="1">
          <mxGeometry x="361.5" y="908" width="24" height="26" as="geometry" />
        </mxCell>
        <mxCell id="TrBIN7piPavdMXaeN3Ud-34" value="" style="endArrow=classic;html=1;rounded=0;" edge="1" parent="1">
          <mxGeometry width="50" height="50" relative="1" as="geometry">
            <mxPoint x="365.16" y="988" as="sourcePoint" />
            <mxPoint x="365.5" y="1021" as="targetPoint" />
          </mxGeometry>
        </mxCell>
        <mxCell id="TrBIN7piPavdMXaeN3Ud-35" value="结束" style="ellipse;whiteSpace=wrap;html=1;" vertex="1" parent="1">
          <mxGeometry x="323.5" y="1022" width="94" height="46" as="geometry" />
        </mxCell>
        <mxCell id="TrBIN7piPavdMXaeN3Ud-36" value="" style="endArrow=classic;html=1;rounded=0;" edge="1" parent="1">
          <mxGeometry width="50" height="50" relative="1" as="geometry">
            <mxPoint x="398.25" y="878" as="sourcePoint" />
            <mxPoint x="422" y="791" as="targetPoint" />
            <Array as="points">
              <mxPoint x="500" y="878" />
              <mxPoint x="497" y="791" />
            </Array>
          </mxGeometry>
        </mxCell>
        <mxCell id="TrBIN7piPavdMXaeN3Ud-37" value="n" style="text;html=1;align=center;verticalAlign=middle;resizable=0;points=[];autosize=1;strokeColor=none;fillColor=none;" vertex="1" parent="1">
          <mxGeometry x="470.5" y="814" width="24" height="26" as="geometry" />
        </mxCell>
      </root>
    </mxGraphModel>
  </diagram>
</mxfile>
